<svg preserveAspectRatio="xMidYMid meet" data-bbox="28.001 35.6 144.001 128.8" viewBox="28.001 35.6 144.001 128.8" height="200" width="200" xmlns="http://www.w3.org/2000/svg" data-type="color" role="presentation" aria-hidden="true" aria-label=""><defs><style>#comp-m1rwf8dg svg [data-color="1"] {fill: #000000;}</style></defs>
    <g>
        <path d="M99.992 113.478c-.491 0-.982-.12-1.427-.36L65.559 95.304a2.997 2.997 0 0 1-1.574-2.636V56.566c0-1.097.599-2.106 1.563-2.63l33.006-17.972a3.017 3.017 0 0 1 2.875 0l33.005 17.972a2.994 2.994 0 0 1 1.565 2.63v35.945a2.994 2.994 0 0 1-1.565 2.63l-33.005 17.972a3.012 3.012 0 0 1-1.437.365zM69.986 90.884l30 16.191 30.011-16.343V58.345l-30.006-16.34-30.006 16.34v32.539z" fill="#C6A105" data-color="1"></path>
        <path d="M100.059 77.771c-.466 0-.933-.108-1.36-.325L74.628 65.228a2.996 2.996 0 0 1-1.316-4.028 3.014 3.014 0 0 1 4.035-1.313l22.708 11.528 22.576-11.525a3.008 3.008 0 0 1 4.038 1.305 2.995 2.995 0 0 1-1.307 4.031l-23.937 12.218a2.997 2.997 0 0 1-1.366.327z" fill="#C6A105" data-color="1"></path>
        <path d="M99.992 101.497a2.998 2.998 0 0 1-3.001-2.995V74.539a2.997 2.997 0 0 1 3.001-2.995 2.998 2.998 0 0 1 3.001 2.995v23.963a2.998 2.998 0 0 1-3.001 2.995z" fill="#C6A105" data-color="1"></path>
        <path d="M145 152.418h-6.001c0-1.436.692-7.921 3.88-11.104l20.767-20.734c1.36-3.414 2.573-24.279 2.365-27.897-.129-2.232-2.834-14.117-4.937-20.614-1.404.632-3.173 1.89-4.524 4.054-1.758 2.817-1.673 6.315.311 12.476.19.588.19 1.223.006 1.814l-3.751 11.911-5.726-1.796 3.469-11.013c-1.705-5.543-2.664-11.335.598-16.562 3.176-5.084 8.213-7.401 11.548-7.401a3 3 0 0 1 2.784 1.881c2.338 5.818 6.019 21.538 6.212 24.905.018.269-.314 28.69-3.874 32.244l-21.004 20.968c-1.299 1.296-2.123 5.459-2.123 6.868z" fill="#C6A105" data-color="1"></path>
        <path d="M111.994 152.418h-6.001v-14.977c.179-4.996.777-11.002 3.88-14.099l9.002-8.986c2.107-2.103 5.781-2.463 9.022-2.782 1.049-.102 2.59-.252 3.206-.439l8.776-8.761c4.999-4.99 10.944-4.28 14.235-.989 3.291 3.285 4.009 9.22-.99 14.211l-15.003 14.977-4.243-4.236 15.003-14.977c2.327-2.326 2.174-4.557.99-5.739-1.181-1.185-3.423-1.337-5.749.989l-9.002 8.986c-1.436 1.43-3.733 1.656-6.637 1.942-1.524.149-4.691.459-5.371 1.059l-8.996 8.98c-.683.682-1.869 2.887-2.124 9.972l.002 14.869z" fill="#C6A105" data-color="1"></path>
        <path d="M151.001 164.4H145v-8.986h-36.007v8.986h-6.001v-11.982a2.996 2.996 0 0 1 3.001-2.995h42.008a2.996 2.996 0 0 1 3.001 2.995V164.4z" fill="#C6A105" data-color="1"></path>
        <path d="M61.002 152.418h-6.001c0-1.41-.823-5.572-2.121-6.868l-21.004-20.968c-3.559-3.551-3.89-31.975-3.875-32.244.193-3.364 3.874-19.087 6.212-24.905a3.003 3.003 0 0 1 2.785-1.881c3.338 0 8.375 2.317 11.548 7.401 3.26 5.224 2.302 11.016.599 16.562l3.468 11.013-5.726 1.796-3.751-11.911a2.995 2.995 0 0 1 .006-1.814c1.982-6.16 2.069-9.659.311-12.476-1.351-2.165-3.121-3.422-4.526-4.054-2.105 6.497-4.807 18.382-4.935 20.611-.208 3.621 1.004 24.49 2.362 27.9l20.768 20.734c3.19 3.183 3.88 9.668 3.88 11.104zm-24.577-31.676z" fill="#C6A105" data-color="1"></path>
        <path d="M93.991 152.418H87.99v-14.977c0-4.566-.869-8.62-2.113-9.864l-8.996-8.986c-.672-.594-3.84-.904-5.364-1.053-2.905-.287-5.201-.512-6.636-1.942l-9.005-8.986c-1.155-1.153-2.373-1.787-3.527-1.834-.845.018-1.644.266-2.224.845s-.881 1.366-.845 2.22c.047 1.15.681 2.366 1.836 3.519l14.998 14.977-4.243 4.236-15-14.977c-4.998-4.99-4.281-10.926-.989-14.211 3.289-3.288 9.239-3.999 14.237.989l8.779 8.761c.615.187 2.155.336 3.204.439 3.241.319 6.915.679 9.022 2.782l8.994 8.986c3.368 3.361 3.871 10.276 3.871 14.099v14.977z" fill="#C6A105" data-color="1"></path>
        <path d="M96.991 164.4H90.99v-8.986H54.983v8.986h-6.001v-11.982a2.997 2.997 0 0 1 3.001-2.995h42.008a2.998 2.998 0 0 1 3.001 2.995V164.4z" fill="#C6A105" data-color="1"></path>
    </g>
</svg>