<svg preserveAspectRatio="xMidYMid meet" data-bbox="35.001 42.001 129.999 115.999" viewBox="35.001 42.001 129.999 115.999" height="200" width="200" xmlns="http://www.w3.org/2000/svg" data-type="color" role="presentation" aria-hidden="true" aria-label=""><defs><style>#comp-kbgakxea_r_comp-m1tkf1y0 svg [data-color="1"] {fill: #F9BB8B;}
#comp-kbgakxea_r_comp-m1tkf1y0 svg [data-color="2"] {fill: #000000;}
#comp-kbgakxea_r_comp-m1tkf1y0 svg [data-color="3"] {fill: #8B0000;}</style></defs>
    <g>
        <path d="M51.914 111.985s-1.47-50.18 15.018-61.666c26.745-18.631 59.213 9.62 62.51 14.07 3.298 4.451 2.617 12.695-4.444 12.274-8.387-.501-20.072-6.531-20.072-6.531s15.484 12.06 20.359 16.368c4.875 4.307 5.305 12.204-3.298 14.788 0 0 1.864 5.887-4.731 8.758-6.595 2.872-21.936-2.728-21.936-2.728l-43.406 4.667z" fill="#6588FC" data-color="1"></path>
        <path d="M96.257 51.491a38.378 38.378 0 0 0-.127 15.44c.158.815 1.402.47 1.244-.344a36.634 36.634 0 0 1 .127-14.753c.172-.81-1.072-1.157-1.244-.343z" fill="#394075" data-color="2"></path>
        <path d="m155.763 84.62-4.731 12.799L36.443 54.937a2.213 2.213 0 0 1-1.305-2.842l3.198-8.65a2.207 2.207 0 0 1 2.838-1.306L155.763 84.62z" fill="#FF6A45" data-color="3"></path>
        <path d="m37.024 48.827 98.378 36.081 18.8 6.895c.781.286 1.118-.962.343-1.246L56.167 54.476l-18.8-6.895c-.781-.286-1.117.962-.343 1.246z" fill="#FFE7D4" data-color="4"></path>
        <path d="m79.564 158 11.168-17.587s9.355-4.415 14.301-14.752 3.979-20.89 3.979-20.89 13.334-18.521 16.452-22.398c3.118-3.877 2.903-9.476 1.183-11.737-1.72-2.261-6.022-3.015-10.323-.538-4.301 2.477-30.753 16.475-30.753 16.475l-34.16 23.52-14.228 21.276c-.001-.001 17.742 20.351 42.381 26.631z" fill="#6588FC" data-color="1"></path>
        <path d="M85.394 86.497a761.45 761.45 0 0 0 15.113-7.857c.733-.392.082-1.507-.651-1.116a766.806 766.806 0 0 1-15.113 7.857c-.741.375-.089 1.491.651 1.116z" fill="#394075" data-color="2"></path>
        <path d="M123.044 85.521c-4.738 6.371-9.665 12.593-14.693 18.737-.522.638.385 1.558.912.914 5.097-6.229 10.09-12.54 14.894-18.999.497-.667-.622-1.312-1.113-.652z" fill="#394075" data-color="2"></path>
        <path d="M112.797 100.442c2.797 1.304 5.657 1.954 8.742 1.575.814-.1.824-1.393 0-1.292-2.861.352-5.491-.187-8.09-1.399-.749-.349-1.405.765-.652 1.116z" fill="#394075" data-color="2"></path>
        <path d="M108.977 104.142c.091 1.983.06 3.939-.095 5.918-.065.829 1.226.825 1.29 0 .155-1.979.187-3.935.095-5.918-.038-.828-1.329-.832-1.29 0z" fill="#394075" data-color="2"></path>
        <path d="m90.578 54.864.827 5.174c.131.819 1.375.471 1.244-.344l-.827-5.174c-.131-.818-1.374-.47-1.244.344z" fill="#394075" data-color="2"></path>
        <path d="M116.569 69.952c4.56-2.422 11.058-2.432 11.261 4.075.026.83 1.316.833 1.29 0-.236-7.573-7.691-8.118-13.202-5.191-.734.39-.083 1.506.651 1.116z" fill="#394075" data-color="2"></path>
        <path d="M110.263 74.585c5.938 3.869 12.808.288 17.297-4.166.591-.586-.322-1.5-.912-.914-4.071 4.039-10.288 7.511-15.733 3.964-.699-.454-1.346.664-.652 1.116z" fill="#394075" data-color="2"></path>
        <path fill="#FFE7D4" d="m155.763 84.62 9.236 10.998-13.967 1.8 4.731-12.798z" data-color="4"></path>
        <path fill="#394075" d="m165 95.616-5.684.736 1.923-5.214L165 95.616z" data-color="2"></path>
    </g>
</svg>